PathFileType	4	(X/Y/Z)	Kaydara	
DataRate	CameraRate	NumFrames	NumMarkers	Units	OrigDataRate	OrigDataStartFrame	OrigNumFrames	
120.00	120.00	4	72	mm	120.00	34	268	
Frame#	Time	Hips			RightUpLeg			RightLeg			RightFoot			RightFoot_End			LeftUpLeg			LeftLeg			LeftFoot			LeftFoot_End			Spine			Spine1			Spine2			Spine3			Neck			Head			Head_End			RightShoulder			RightArm			RightForeArm			RightHand			RightHandThumb1			RightHandThumb2			RightHandThumb3			RightHandThumb3_End			RightInHandIndex			RightHandIndex1			RightHandIndex2			RightHandIndex3			RightHandIndex3_End			RightInHandMiddle			RightHandMiddle1			RightHandMiddle2			RightHandMiddle3			RightHandMiddle3_End			RightInHandRing			RightHandRing1			RightHandRing2			RightHandRing3			RightHandRing3_End			RightInHandPinky			RightHandPinky1			RightHandPinky2			RightHandPinky3			RightHandPinky3_End			LeftShoulder			LeftArm			LeftForeArm			LeftHand			LeftHandThumb1			LeftHandThumb2			LeftHandThumb3			LeftHandThumb3_End			LeftInHandIndex			LeftHandIndex1			LeftHandIndex2			LeftHandIndex3			LeftHandIndex3_End			LeftInHandMiddle			LeftHandMiddle1			LeftHandMiddle2			LeftHandMiddle3			LeftHandMiddle3_End			LeftInHandRing			LeftHandRing1			LeftHandRing2			LeftHandRing3			LeftHandRing3_End			LeftInHandPinky			LeftHandPinky1			LeftHandPinky2			LeftHandPinky3			LeftHandPinky3_End			
		X1	Y1	Z1	X2	Y2	Z2	X3	Y3	Z3	X4	Y4	Z4	X5	Y5	Z5	X6	Y6	Z6	X7	Y7	Z7	X8	Y8	Z8	X9	Y9	Z9	X10	Y10	Z10	X11	Y11	Z11	X12	Y12	Z12	X13	Y13	Z13	X14	Y14	Z14	X15	Y15	Z15	X16	Y16	Z16	X17	Y17	Z17	X18	Y18	Z18	X19	Y19	Z19	X20	Y20	Z20	X21	Y21	Z21	X22	Y22	Z22	X23	Y23	Z23	X24	Y24	Z24	X25	Y25	Z25	X26	Y26	Z26	X27	Y27	Z27	X28	Y28	Z28	X29	Y29	Z29	X30	Y30	Z30	X31	Y31	Z31	X32	Y32	Z32	X33	Y33	Z33	X34	Y34	Z34	X35	Y35	Z35	X36	Y36	Z36	X37	Y37	Z37	X38	Y38	Z38	X39	Y39	Z39	X40	Y40	Z40	X41	Y41	Z41	X42	Y42	Z42	X43	Y43	Z43	X44	Y44	Z44	X45	Y45	Z45	X46	Y46	Z46	X47	Y47	Z47	X48	Y48	Z48	X49	Y49	Z49	X50	Y50	Z50	X51	Y51	Z51	X52	Y52	Z52	X53	Y53	Z53	X54	Y54	Z54	X55	Y55	Z55	X56	Y56	Z56	X57	Y57	Z57	X58	Y58	Z58	X59	Y59	Z59	X60	Y60	Z60	X61	Y61	Z61	X62	Y62	Z62	X63	Y63	Z63	X64	Y64	Z64	X65	Y65	Z65	X66	Y66	Z66	X67	Y67	Z67	X68	Y68	Z68	X69	Y69	Z69	X70	Y70	Z70	X71	Y71	Z71	X72	Y72	Z72	

34	0.275	3446.805	859.65103	-201.189	3540.521264983845	857.4556827251057	-232.60901327467556	3392.192979385843	468.7395301475936	-293.3069476458946	3418.4722899398535	40.39198164760124	-341.36710085641744	3328.5107103963924	-34.389288515790966	-179.2411913838805	3363.1503587810475	834.4104007381807	-155.5700528692517	3243.0276324329225	436.11892921777496	-104.87362726857677	3190.177181472193	58.693365349914515	64.05277636654847	3217.4796735606988	14.34566643462988	247.54939806694998	3397.091447260137	979.5983903538496	-261.4151490436755	3341.555501895523	1042.1844319634624	-310.7259821010734	3276.7035623295783	1099.9050454722135	-362.50999451184924	3206.4186354904277	1144.894352582036	-412.50356108864514	3130.543649737815	1193.4042269990434	-462.5049836229503	3088.6998845857092	1265.525756954074	-417.4431795002386	3065.506780882816	1350.147234336305	-283.69879022005273	3176.4168427856002	1184.5959408055687	-466.5472508687259	3258.7959993191025	1184.9488546211358	-548.9275028933362	3319.6375059072097	957.3000263733778	-574.0461448710439	3408.544283738049	839.1777383692162	-653.5550902661433	3408.94481080317	839.6141041548296	-669.6880818565618	3396.916451061652	836.3443467565656	-685.4008266568678	3390.0761882528805	832.1771708085704	-694.9362002040036	3385.688013293219	827.0862307348591	-701.6817885815263	3416.322009680358	832.5875714556543	-665.9570705751644	3425.96646074912	816.7656442045696	-680.4180060272508	3422.8855626761106	807.3096096447355	-691.3762414409277	3413.5952302148617	805.0514352020182	-698.7041565258539	3400.931005044723	805.6245828285629	-705.1169769716571	3419.699333014649	828.0713403760163	-661.6695049312707	3430.9358313903786	810.1958376615762	-673.4548657420319	3427.9760732251525	799.334774806933	-684.8009588202826	3416.9605757116137	796.3499855323191	-693.3483682082066	3403.197407663576	796.8505305753094	-700.2224953597495	3421.9506966072904	825.2530890451526	-658.2559142444188	3434.301102039879	806.6950796574486	-665.8096305148639	3432.113427459509	796.7024175533511	-675.0554875007973	3421.6962956819407	793.5439571209762	-682.9584360609376	3408.8541005588518	793.8822035368456	-689.2599234034258	3423.388581535575	822.7097551974556	-654.0239834296667	3435.9796453216804	804.0104041827472	-658.2962096454871	3434.784816596485	795.2690030684738	-664.6632788445311	3427.4559482172413	792.6074216965073	-669.926250431696	3416.2349091095257	792.7011384216006	-675.2197414306509	3134.4104311206875	1173.2024227418894	-423.16113588327147	3075.93435141068	1105.73562578105	-343.37591244896294	3183.2825715216354	967.1126680382423	-518.8734087316723	3375.0871625573263	884.1552675384057	-508.33818650448075	3363.5704594471936	889.5942948637174	-514.6599085914178	3365.7377136298373	887.4594013755438	-543.035800024828	3368.2800747838255	884.0565476511875	-564.8544131949294	3371.2833067933166	879.5805457588824	-584.803899082236	3364.9750116396986	883.412107084282	-521.2097371068083	3358.7325444475255	874.3568985409912	-554.6043338022006	3361.0233343698605	867.0535446541516	-585.3552603413013	3365.7323025021024	864.2266524367391	-604.3287873518801	3371.845604579243	863.0427120301453	-619.9358277975069	3368.317475806262	878.468135262196	-526.0008850688189	3364.0348057658475	866.9620442541897	-561.1623634984436	3367.0040820867716	858.368408753283	-595.25098461881	3372.9106194439037	854.6583270956063	-618.3977298029587	3379.7092276754947	853.2172643845207	-635.599051384962	3370.7763657329933	875.2021384769305	-528.4774786333556	3368.8917443908163	862.043107975911	-561.9746861653084	3371.9671561898463	853.9330178304732	-592.1766912194851	3377.923316087186	850.025182580872	-614.7639081216747	3384.4383781257075	848.5142383592388	-631.060854498231	3374.278530541404	871.7329729676437	-530.8069455704048	3374.4994522142697	857.5079911981182	-562.7887777905473	3377.7311676454424	850.1041230505166	-587.5925851560413	3382.447626802631	846.8137250338008	-604.3673044812283	3388.433007414428	845.2220443798975	-618.9761223647348
35	0.283	3446.805	859.65103	-201.189	3540.312582494384	857.410974311184	-232.60941397203865	3392.242962213929	468.6456922454077	-293.18744367593285	3418.7283972964406	40.539300599827875	-341.52689973902443	3329.0899336988305	-34.32465518189957	-179.48529966260378	3363.343504351516	834.4460095554051	-155.5781852951404	3243.1117389775486	436.21819946515427	-104.73109751243351	3190.189595225116	58.75168772246233	64.03272694252396	3217.664129092882	14.381105205919818	247.46992755564472	3397.172021282702	979.6410558694245	-261.37763210732226	3341.6841287652305	1042.2984159845334	-310.6361003051647	3276.751905923678	1099.9130576970624	-362.3776915230066	3206.5291063292316	1145.0165206794436	-412.3199165868872	3130.7185884177397	1193.642261308448	-462.26518007588635	3088.884923774861	1265.762365407626	-417.2023679149233	3065.683907768704	1350.3662231075814	-283.4613547867746	3176.5264669506705	1184.8073011435959	-466.2770039772815	3258.7319138533603	1185.2887548521837	-548.4782460553112	3320.156160150937	957.9257926841049	-573.522514155899	3408.846679411542	840.598213648531	-653.1880749251411	3409.361584191039	841.2331697032894	-669.2367484690535	3397.460287524155	838.1297480787528	-685.0194221431791	3390.6949846203593	834.0671756091605	-694.6200374061316	3386.3577282255237	829.0538283494067	-701.434167243143	3416.696716828771	834.1874885751151	-665.5458935194993	3426.4191357376485	818.5855763528165	-680.0501213087136	3423.4142321790364	809.2671594030752	-691.0994349312625	3414.1880452721057	807.0781176137659	-698.5005949610963	3401.5883129806266	807.697406513632	-704.9852503393381	3420.0355687255365	829.6323112777136	-661.3047130420158	3431.3272990141418	811.950342133983	-673.1573726926138	3428.4451635509013	801.2335753729828	-684.6089063323834	3417.504511304307	798.3293738778365	-693.2475884009081	3403.810673419116	798.8790361111417	-700.2017297571701	3422.2574693498473	826.7810567941732	-657.9222865545206	3434.6309370647537	808.3682169229734	-665.5618998419711	3432.5054164639946	798.4950159075751	-674.9057489245948	3422.1575562247167	795.410938632754	-682.8999713840694	3409.3791643170025	795.7937803042524	-689.2782240813901	3423.661449675402	824.1923058068642	-653.7289760701225	3436.2518052103305	805.5986027993061	-658.1021240905527	3435.0980628668985	796.9423863113419	-664.5567910907763	3427.815521188845	794.3299935233576	-669.8907547300745	3416.6485835164513	794.4602980316503	-675.2547890912148	3134.607614505925	1173.3838666425654	-422.9913053125339	3076.3033412015275	1106.0082775706414	-343.4276789556018	3183.489821179954	967.6361062741732	-518.5021454958793	3375.1557340771224	885.326799280457	-507.9691435697328	3363.748299624777	890.9466369052252	-514.345363526327	3366.019974770368	888.900142944908	-542.6857570368097	3368.6204297219792	885.5497541256018	-564.4746186793442	3371.659582022124	881.1097091258627	-584.3949995766193	3365.10769230703	884.7579419158264	-520.8905775084609	3358.920912463755	875.8941929674099	-554.3063065005273	3361.265195810282	868.6732789029056	-585.0269902911572	3366.02310385029	865.8623095917735	-603.9594997728717	3372.1874915458975	864.6677172758292	-619.5176052929636	3368.4091426913083	879.7801528125282	-525.6651735890065	3364.1585997615716	868.442528915101	-560.8383237262328	3367.1806741563632	859.9337042644449	-594.8916351014408	3373.143581247271	856.2403632681979	-617.9877865999591	3379.9967857597176	854.786444338146	-635.135026363434	3370.837400884489	876.4858721818606	-528.1299613705145	3368.9542967134403	863.4547162421735	-561.6286324294848	3372.069981885299	855.4130165485882	-591.797478944818	3378.077463719898	851.5183911621449	-614.3346294802114	3384.6424145142446	849.9939668746208	-630.5801246953719	3374.304493023836	872.974666567341	-530.4418405335759	3374.504415969019	858.8427741041584	-562.4156144890234	3377.7594132540253	851.4844796064461	-587.1891421852321	3382.5089678775516	848.1992706906433	-603.9255397393313	3388.536045373204	846.5930903613076	-618.4877426412887
36	0.292	3446.805	859.65103	-201.189	3540.1056399149816	857.3621052005639	-232.60519454896476	3392.2863412810248	468.5465745352948	-293.04138887921295	3418.926592474477	40.677874326605014	-341.66168955787583	3329.615205716472	-34.270694628410496	-179.70676782362602	3363.5323347998515	834.4855249828335	-155.5896825744804	3243.1775134743802	436.3213371557458	-104.62252399929282	3190.17802923869	58.78934080684878	63.90958353469725	3217.8228951351252	14.389299245179492	247.2855843816167	3397.26374364515	979.685086194823	-261.34588445476936	3341.824619792073	1042.4105417130347	-310.55675604157483	3276.848500962908	1099.9688235093336	-362.2559672251482	3206.6806873298046	1145.1762755404486	-412.14473797841197	3130.93195666488	1193.9163552734774	-462.0307534114543	3089.0955975462425	1266.026721209098	-416.9701498522773	3065.880354026128	1350.615963624134	-283.2362271672034	3176.666686653656	1185.042120707002	-466.0153125922243	3258.700784188418	1185.6594490593302	-548.0348428451335	3320.6401195587273	958.6004069203342	-573.0037561391653	3409.117703506029	842.0769578241601	-652.8128860751746	3409.828704646253	842.9459050706772	-668.778915831127	3398.110892950158	840.021185198125	-684.6919147502978	3391.4520649567235	836.0677695942796	-694.4038217213431	3387.1853463928637	831.1323392260043	-701.3282962177592	3417.1026821910586	835.8713248090145	-665.1381179479293	3426.964339833975	820.5068604236023	-679.7378612591305	3424.071163518138	811.3299110981885	-690.9389318018025	3414.929127497006	809.2098032137042	-698.4571160030147	3402.408956000093	809.8733203760473	-705.0539272341023	3420.3794490831474	831.2651625636076	-660.9535142123859	3431.7734024051497	813.7872205251161	-672.9299150547762	3429.0045582092034	803.2172960245229	-684.5543072400341	3418.1612921894794	800.3926481004981	-693.3376589862038	3404.552496383965	800.988947989351	-700.4162142841428	3422.5536716177403	828.3720153660862	-657.6079088851969	3434.9765953098813	810.1062113894797	-665.3882971434889	3432.940846491134	800.3529812370741	-674.8900457087618	3422.6821572953636	797.3413822502515	-683.0276563398069	3409.9814679700385	797.7660577552954	-689.5247097302961	3423.9007305232435	825.7266157977167	-653.4598848212208	3436.5005214432254	807.2335593146543	-657.9877084087076	3435.4044504982435	798.6602606743634	-664.5794946426033	3428.180074796182	796.0943723895526	-670.0232122037959	3417.0780116130372	796.2580741155303	-675.4954579381862	3134.8538640862157	1173.6151970399596	-422.8273752466018	3076.7378790207836	1106.352473444626	-343.4837391729078	3183.7290470337657	968.2257301666297	-518.1201558846356	3375.262079148459	886.5880313137194	-507.565887192489	3363.96478395387	892.3642939274063	-513.9725713282033	3366.330991205723	890.3873330294147	-542.2668423023352	3368.984045185886	887.0786775956627	-564.0198563288384	3372.0557270843933	882.6677023193482	-583.9071652807637	3365.285704208179	886.1753364302931	-520.5142920049109	3359.1643120730014	877.4848862632539	-553.9267988032693	3361.5601930484827	870.3345575832914	-584.6074785782603	3366.3592297886557	867.532019894037	-603.4976755793699	3372.5637641632366	866.320493110931	-619.008993790413	3368.5491771108013	881.1709461776429	-525.2770702799538	3364.341867734163	869.9879788939252	-560.4406960111385	3367.4150296418748	861.5520418191593	-594.4487587753413	3373.425054698927	857.8668887833948	-617.4930962989334	3380.3209698979654	856.3934755370992	-634.5887703992004	3370.9487998882278	877.853947543573	-527.7339490997933	3369.079188598689	864.9431328115678	-561.2182675593176	3372.2340040481877	856.9604874580332	-591.3460553909383	3378.2840681457187	853.0713830551383	-613.8323671586737	3384.887819954859	851.5275027855237	-630.0289693482954	3374.3820607433277	874.3076100216931	-530.0339830467339	3374.573069152433	860.2661644223078	-561.9884923870939	3377.850922388954	852.9476480806845	-586.7266735798905	3382.627434712121	849.6628327743811	-603.4247949877307	3388.6865233041017	848.0373270814121	-617.9429992032217
37	0.3	3446.805	859.65103	-201.189	3539.9007394216737	857.3110286620349	-232.59538596811475	3392.3285244291774	468.4416844463714	-292.8632749869969	3419.0988312732675	40.81042785704614	-341.7657199820041	3330.118290781021	-34.22552460619701	-179.9003660546589	3363.717030007062	834.5270569662379	-155.6057576706833	3243.235013383368	436.42412331739524	-104.54482324739364	3190.1475685180885	58.81284768883314	63.71123442976609	3217.961970271472	14.38116749321639	247.02539166983485	3397.3644917480583	979.7300856900202	-261.3188999558271	3341.97554393467	1042.5207447905402	-310.48714444067997	3276.9979782647188	1100.0797494063863	-362.144206644213	3206.8805556430766	1145.3826685064032	-411.9796541082546	3131.19321846505	1194.2366304843072	-461.80585191574266	3089.3451988717507	1266.3323811644505	-416.7517288471978	3066.111321551027	1350.9125718897092	-283.0299137749583	3176.8483597882173	1185.3124812040708	-465.764329700889	3258.7175898452897	1186.0692729230113	-547.5931416951742	3321.0938339154013	959.3394785388218	-572.4778572266976	3409.404090017539	843.6335635261682	-652.4229770825683	3410.3719974007727	844.7649285483294	-668.3056517953821	3398.8832390066736	842.0263695128571	-684.3905785074552	3392.357721766481	838.1841230455789	-694.2461417188642	3388.1797226729395	833.3255647902661	-701.3108440555043	3417.5737554853335	837.654174641693	-664.7238751307696	3427.6285508676087	822.5410727649237	-679.4578966742653	3424.879726897963	813.5071246346906	-690.8544298371346	3415.8392517482116	811.4539432762309	-698.5202216066912	3403.411113470039	812.1580303393948	-705.2568043044034	3420.7730075513	832.9875002518418	-660.6045217482161	3432.3134108403046	815.7220059566879	-672.7471583091286	3429.691241686682	805.299285094684	-684.5931400214918	3418.965302616994	802.5511391570773	-693.5585584677983	3405.4546788542357	803.189767414533	-700.7919866136734	3422.887303648366	830.0454387677022	-657.3007362707515	3435.3887701480535	811.9283116392033	-665.2639126219207	3433.4695545241493	802.2940116122593	-674.9670318090009	3423.318030529061	799.3512279572653	-683.2846326652443	3410.7068011798556	799.813344434521	-689.9293769018419	3424.161540104528	827.334384975269	-653.2037394468638	3436.7877538419657	808.9381501445745	-657.9278551352614	3435.7670127449255	800.4448138900908	-664.6929442418665	3428.612103517224	797.9217311681294	-670.2737776491649	3417.584280174927	798.1143482245765	-675.8802091609967	3135.1555322092518	1173.903778899458	-422.67352119602805	3077.2314649264026	1106.7670317719346	-343.5528328892564	3184.0131816769212	968.8981269317729	-517.7595451038885	3375.4093970905315	887.948729115435	-507.1542878817807	3364.223898568083	893.8505067371698	-513.556228013372	3366.6692648555886	891.920322150754	-541.7884265447369	3369.3657847963186	888.640676984659	-563.4967936305253	3372.463727204615	884.2508377692301	-583.3456699244929	3365.5144764166917	887.6693734702999	-520.0977116958138	3359.4691228697943	879.1301359983509	-553.4744728095415	3361.9115093364526	872.0365092579583	-584.1020675785978	3366.7395376966147	869.233756231169	-602.9477065831062	3372.968121901556	867.998127238152	-618.4143493550423	3368.743283676735	882.6477197774943	-524.856536749603	3364.5913915673564	871.6029173223503	-559.9831668092894	3367.710471065974	863.2260241302633	-593.9328621831635	3373.7531569007315	859.539252978875	-616.9232309243615	3380.6742601764126	858.0388073260664	-633.9699195652613	3371.1164783853383	879.3151649068326	-527.3118046031161	3369.2736028220315	866.5161310143404	-560.7623590883181	3372.463417269674	858.5818342188387	-590.8388788253045	3378.54231731153	854.689514607622	-613.2729235396606	3385.168488820318	853.1194328392252	-629.4233674396644	3374.5170455353837	875.7425821776026	-529.6088901808321	3374.712458232374	861.7892065579666	-561.531508952393	3378.0103848318363	854.5040553869903	-586.2281648522497	3382.804082812968	851.2143061673439	-602.8879339910269	3388.8808175400345	849.5641010457895	-617.3651176065166
